<?xml version="1.0" encoding="UTF-8"?>
<svg xmlns="http://www.w3.org/2000/svg" xmlns:xlink="http://www.w3.org/1999/xlink" width="32px" height="32px" viewBox="0 0 32 32" version="1.1">
<g id="surface1">
<path style="fill:none;stroke-width:6;stroke-linecap:butt;stroke-linejoin:miter;stroke:rgb(0%,0%,0%);stroke-opacity:1;stroke-miterlimit:4;" d="M 100.706177 71.504517 C 100.706177 53.278198 85.924072 38.496094 67.697754 38.496094 C 49.471436 38.496094 34.705811 53.278198 34.705811 71.504517 C 34.705811 89.730835 49.471436 104.49646 67.697754 104.49646 C 85.924072 104.49646 100.706177 89.730835 100.706177 71.504517 Z M 100.706177 71.504517 " transform="matrix(0.237037,0,0,0.237037,0,0)"/>
<path style="fill:none;stroke-width:4;stroke-linecap:butt;stroke-linejoin:miter;stroke:rgb(0%,0%,0%);stroke-opacity:1;stroke-miterlimit:4;" d="M 51.893921 11.898193 L 83.600464 11.898193 L 86.665649 23.302002 L 87.62146 23.69751 C 107.017822 31.723022 119.608154 50.592041 119.608154 71.586914 C 119.608154 73.844604 119.459839 76.118774 119.163208 78.359985 L 119.031372 79.365234 L 127.402954 87.736816 L 111.599121 115.142212 L 100.211792 112.077026 L 99.404297 112.703247 C 90.340576 119.657593 79.200439 123.398438 67.796631 123.398438 C 56.392822 123.398438 45.302124 119.641113 36.188965 112.703247 L 35.38147 112.077026 L 23.994141 115.142212 L 8.190308 87.736816 L 16.56189 79.365234 L 16.430054 78.359985 C 16.133423 76.118774 15.985107 73.844604 15.985107 71.586914 C 15.985107 50.592041 28.575439 31.690063 47.971802 23.69751 L 48.927612 23.302002 Z M 51.893921 11.898193 " transform="matrix(0.237037,0,0,0.237037,0,0)"/>
<path style=" stroke:none;fill-rule:nonzero;fill:rgb(0%,0%,0%);fill-opacity:1;" d="M 15.335938 7.253906 L 15.335938 12.941406 L 14.132812 12.941406 L 16.046875 16.261719 L 17.960938 12.941406 L 16.757812 12.941406 L 16.757812 7.253906 L 15.339844 7.253906 "/>
<path style=" stroke:none;fill-rule:nonzero;fill:rgb(0%,0%,0%);fill-opacity:1;" d="M 24.800781 21.179688 L 19.871094 18.335938 L 20.472656 17.292969 L 16.644531 17.292969 L 18.558594 20.609375 L 19.160156 19.566406 L 24.085938 22.410156 L 24.796875 21.183594 "/>
<path style=" stroke:none;fill-rule:nonzero;fill:rgb(0%,0%,0%);fill-opacity:1;" d="M 8.007812 22.410156 L 12.933594 19.566406 L 13.535156 20.609375 L 15.453125 17.292969 L 11.621094 17.292969 L 12.222656 18.335938 L 7.296875 21.179688 L 8.003906 22.410156 "/>
</g>
</svg>
